{"title":"Topaz(1969)MP-4[DaScubaDude]","uid":12497649,"size":1742030060,"categoryP":"video","categoryS":"movies","magnet":"?xt=urn:btih:d939756cf153294284dc0a14ed3952a6778e8036&amp;dn=Topaz%281969%29MP-4%5BDaScubaDude%5D&amp;tr=udp%3A%2F%2Ftracker.leechers-paradise.org%3A6969&amp;tr=udp%3A%2F%2Fzer0day.ch%3A1337&amp;tr=udp%3A%2F%2Fopen.demonii.com%3A1337&amp;tr=udp%3A%2F%2Ftracker.coppersurfer.tk%3A6969&amp;tr=udp%3A%2F%2Fexodus.desync.com%3A6969","seeders":0,"leechers":0,"uploader":"dascuba","files":1,"time":1443308536,"description":"Topaz (1969)\r\nM  |  143 min  |  Thriller  |  19 December 1969 (USA)\r\n6.3 Your rating:   -/10   Ratings: 6.3/10 from 11,922 users   \r\nReviews: 86 user | 46 critic\r\nA French intelligence agent becomes embroiled in the Cold War politics first with uncovering the events leading up to the 1962 Cuban Missle Crisis, and then back to France to break up an international Russian spy ring.\r\n\r\nDirector: Alfred Hitchcock\r\nWriters: Leon Uris (from the novel by), Samuel A. Taylor (screenplay) (as Samuel Taylor)\r\nStars: Frederick Stafford, Dany Robin, John Vernon\r\n\r\nGeneral\r\nComplete name                            : C:TopazTOPAZ_Title1.mp4\r\nFormat                                   : MPEG-4\r\nFormat profile                           : Base Media\r\nCodec ID                                 : isom\r\nFile size                                : 1.62 GiB\r\nDuration                                 : 2h 22mn\r\nOverall bit rate mode                    : Constant\r\nOverall bit rate                         : 1 634 Kbps\r\nMovie name                               : TOPAZ\r\nGenre                                    : Spy_Film\r\nWriting application                      : Lavf54.6.100\r\n\r\nVideo\r\nID                                       : 1\r\nFormat                                   : MPEG-4 Visual\r\nFormat settings, BVOP                    : No\r\nFormat settings, QPel                    : No\r\nFormat settings, GMC                     : No warppoints\r\nFormat settings, Matrix                  : Default (H.263)\r\nCodec ID                                 : 20\r\nDuration                                 : 2h 22mn\r\nBit rate mode                            : Constant\r\nBit rate                                 : 1 500 Kbps\r\nWidth                                    : 720 pixels\r\nHeight                                   : 404 pixels\r\nDisplay aspect ratio                     : 16:9\r\nFrame rate mode                          : Constant\r\nFrame rate                               : 29.970 fps\r\nColor space                              : YUV\r\nChroma subsampling                       : 4:2:0\r\nBit depth                                : 8 bits\r\nScan type                                : Progressive\r\nCompression mode                         : Lossy\r\nBits/(Pixel*Frame)                       : 0.172\r\nStream size                              : 1.49 GiB (92%)\r\nWriting library                          : Lavc54.23.100\r\n\r\nAudio\r\nID                                       : 2\r\nFormat                                   : MPEG Audio\r\nFormat version                           : Version 1\r\nFormat profile                           : Layer 3\r\nCodec ID                                 : 6B\r\nDuration                                 : 2h 22mn\r\nBit rate mode                            : Constant\r\nBit rate                                 : 128 Kbps\r\nChannel(s)                               : 2 channels\r\nSampling rate                            : 44.1 KHz\r\nCompression mode                         : Lossy\r\nStream size                              : 130 MiB (8%)\r\nWriting library                          : LAME3.99.5","torrent":{"xt":"urn:btih:d939756cf153294284dc0a14ed3952a6778e8036","amp;dn":"Topaz%281969%29MP-4%5BDaScubaDude%5D","amp;tr":["udp%3A%2F%2Ftracker.leechers-paradise.org%3A6969","udp%3A%2F%2Fzer0day.ch%3A1337","udp%3A%2F%2Fopen.demonii.com%3A1337","udp%3A%2F%2Ftracker.coppersurfer.tk%3A6969","udp%3A%2F%2Fexodus.desync.com%3A6969"],"infoHash":"d939756cf153294284dc0a14ed3952a6778e8036","infoHashBuffer":{"type":"Buffer","data":[217,57,117,108,241,83,41,66,132,220,10,20,237,57,82,166,119,142,128,54]},"announce":[],"urlList":[]}}